<svg width="93" height="136" viewBox="0 0 93 136" fill="none" xmlns="http://www.w3.org/2000/svg">
<g clip-path="url(#clip0_173_218)">
<path d="M40.8739 1.35566V11.3971C40.8739 16.3752 42.7863 18.7799 46.6889 18.7799C50.5914 18.7799 52.6085 16.3769 52.6085 11.3971V1.35566H40.8722H40.8739ZM58.071 63.3361H34.9256C15.6692 63.3361 0 79.1595 0 98.6087V127.202L0.0708327 127.646L2.02379 128.265C20.4015 134.062 36.3709 136 49.5155 136C75.1839 136 90.0638 128.605 90.9863 128.137L92.8094 127.202H93V98.6087C93 79.1595 77.3342 63.3361 58.071 63.3361ZM52.9829 121.44C52.9964 121.539 52.9643 121.636 52.9154 121.716L46.9199 130.577C46.839 130.702 46.7091 130.77 46.5675 130.77H46.5557C46.4157 130.77 46.2808 130.693 46.2032 130.571L40.6344 121.703C40.5872 121.628 40.5652 121.537 40.5686 121.444L43.2518 79.965L38.9293 70.9404C38.9293 69.9441 39.7287 69.1402 40.7153 69.1402H52.6675C53.6524 69.1402 54.4501 69.9441 54.4501 70.9404L50.1192 80.2784L52.9829 121.44ZM71.4416 38.0606C67.0718 40.3904 62.5554 42.7969 57.2801 43.3827L57.0524 43.41L34.7603 43.2482C28.2555 42.1259 22.6732 39.4197 19.4959 37.6212C21.2954 51.0773 32.6826 61.461 46.5017 61.461C60.3208 61.461 72.1212 50.723 73.6087 36.9297C72.8818 37.3061 72.1499 37.6808 71.4416 38.0606ZM75.4908 27.464C75.4301 27.0263 74.371 27.1659 74.2715 26.6499C72.9459 19.6076 68.3333 5.38005 55.9376 0.309962V11.346C55.9376 17.8637 51.713 23.145 46.4983 23.145C41.2837 23.145 37.059 17.862 37.059 11.346V0C27.2605 3.49303 20.0726 12.7885 19.0658 26.2139C19.0253 26.747 17.5159 27.2835 17.4974 27.8301C17.4822 28.2951 18.9562 32.236 18.9562 32.7078C18.9562 32.7078 26.257 37.8222 35.4282 39.4026L56.8483 39.5048C62.6684 38.8559 67.6335 35.5094 73.2663 32.7078C73.2663 32.7078 75.6831 28.9593 75.4908 27.464Z" fill="#DE9D43"/>
</g>
<defs>
<clipPath id="clip0_173_218">
<rect width="93" height="136" fill="white"/>
</clipPath>
</defs>
</svg>
