<svg width="170" height="249" viewBox="0 0 170 249" fill="none" xmlns="http://www.w3.org/2000/svg">
<g clip-path="url(#clip0_191_109)">
<path d="M74.7157 2.48205V20.8667C74.7157 29.981 78.2116 34.3839 85.3453 34.3839C92.479 34.3839 96.166 29.9841 96.166 20.8667V2.48205H74.7126H74.7157ZM106.151 115.961H63.8425C28.6426 115.961 0 144.932 0 180.541V232.892L0.129479 233.705L3.69941 234.837C37.2931 245.452 66.4845 249 90.5121 249C137.433 249 164.633 235.461 166.319 234.604L169.652 232.892H170V180.541C170 144.932 141.364 115.961 106.151 115.961ZM96.8504 222.343C96.8751 222.524 96.8165 222.702 96.7271 222.848L85.7676 239.072C85.6197 239.299 85.3823 239.424 85.1233 239.424H85.1017C84.8459 239.424 84.5992 239.284 84.4574 239.059L74.2779 222.823C74.1916 222.686 74.1515 222.521 74.1577 222.349L79.0625 146.407L71.1611 129.883C71.1611 128.059 72.6224 126.588 74.4259 126.588H96.2739C98.0743 126.588 99.5325 128.059 99.5325 129.883L91.6158 146.98L96.8504 222.343ZM130.592 69.6845C122.604 73.9501 114.349 78.356 104.706 79.4287L104.289 79.4786L63.5404 79.1823C51.6499 77.1275 41.4457 72.1727 35.6376 68.88C38.927 93.5165 59.7423 112.528 85.0031 112.528C110.264 112.528 131.834 92.8679 134.554 67.614C133.225 68.3031 131.887 68.9891 130.592 69.6845ZM137.994 50.2833C137.883 49.4819 135.947 49.7376 135.765 48.7928C133.342 35.8993 124.91 9.85024 102.252 0.567504V20.7731C102.252 32.7063 94.5291 42.3757 84.9969 42.3757C75.4648 42.3757 67.7423 32.7032 67.7423 20.7731V0C49.831 6.39533 36.6919 23.4142 34.8515 47.9946C34.7775 48.9706 32.0184 49.9528 31.9844 50.9537C31.9567 51.805 34.6511 59.0204 34.6511 59.8841C34.6511 59.8841 47.9967 69.2479 64.7612 72.1416L103.916 72.3287C114.555 71.1406 123.631 65.0135 133.928 59.8841C133.928 59.8841 138.345 53.021 137.994 50.2833Z" fill="#4F6AAE"/>
</g>
<defs>
<clipPath id="clip0_191_109">
<rect width="170" height="249" fill="white"/>
</clipPath>
</defs>
</svg>
