<svg width="159" height="210" viewBox="0 0 159 210" fill="none" xmlns="http://www.w3.org/2000/svg">
<g clip-path="url(#clip0_191_97)">
<path d="M154.583 56.875H132.5V8.39453C132.5 3.75703 128.547 0 123.667 0C118.786 0 114.833 3.75703 114.833 8.39453V56.875H44.1667V8.39453C44.1667 3.75703 40.2137 0 35.3278 0C30.4419 0 26.5 3.75703 26.5 8.39453V56.875H4.41667C1.9737 56.875 0 60.6758 0 62.9945V84C0 109.195 44.1667 138.452 44.1667 178.921V192.5H61.8333V210H97.1667V192.5H114.833V178.921C114.833 138.452 159 109.192 159 84V62.9945C159 60.6758 157.026 56.875 154.583 56.875ZM74.672 128.573C74.9591 127.654 74.3767 126.875 73.3636 126.875H56.2048C55.189 126.875 54.9019 126.306 55.5479 125.568C55.5479 125.568 90.9033 81.1234 91.5934 80.2648C92.1151 79.45 92.6893 79.7344 92.5071 80.6723C92.2338 81.859 84.6841 112.18 84.6841 112.18C84.3169 113.072 84.8469 113.75 85.849 113.75H103.016C104.026 113.75 104.349 114.423 103.731 115.186C103.731 115.186 68.3231 160.694 67.6854 161.457C67.045 162.217 66.4543 161.987 66.7745 160.691C67.0974 159.392 74.6665 128.573 74.6665 128.573" fill="#4F6AAE"/>
</g>
<defs>
<clipPath id="clip0_191_97">
<rect width="159" height="210" fill="white"/>
</clipPath>
</defs>
</svg>
