<svg width="75" height="71" viewBox="0 0 75 71" fill="none" xmlns="http://www.w3.org/2000/svg">
<g clip-path="url(#clip0_69_875)">
<path d="M52.3176 45.5491L50.4201 47.4398C50.4201 47.4398 45.9089 51.9354 33.5964 39.6641C21.2839 27.3929 25.7951 22.8974 25.7951 22.8974L26.9901 21.7058C29.9339 18.7714 30.2114 14.0604 27.6426 10.6224L22.3889 3.58714C19.2101 -0.669078 13.0664 -1.23039 9.42262 2.40061L2.88262 8.91837C1.07637 10.7201 -0.134878 13.0543 0.0126223 15.6429C0.387622 22.2671 3.37887 36.5218 20.0651 53.152C37.7601 70.787 54.3626 71.4886 61.1526 70.8534C63.3001 70.6529 65.1676 69.5566 66.6726 68.0568L72.5914 62.158C76.5864 58.1762 75.4601 51.349 70.3476 48.5637L62.3876 44.2261C59.0314 42.3968 54.9414 42.9343 52.3189 45.5491H52.3176Z" fill="#DE9D43"/>
</g>
<defs>
<clipPath id="clip0_69_875">
<rect width="75" height="71" fill="white"/>
</clipPath>
</defs>
</svg>
