<svg width="82" height="109" viewBox="0 0 82 109" fill="none" xmlns="http://www.w3.org/2000/svg">
<g clip-path="url(#clip0_173_349)">
<path d="M79.7222 29.5208H68.3333V4.35716C68.3333 1.95008 66.2947 0 63.7778 0C61.2608 0 59.2222 1.95008 59.2222 4.35716V29.5208H22.7778V4.35716C22.7778 1.95008 20.7392 0 18.2194 0C15.6996 0 13.6667 1.95008 13.6667 4.35716V29.5208H2.27778C1.01788 29.5208 0 31.4936 0 32.6972V43.6C0 56.6772 22.7778 71.8634 22.7778 92.8686V99.9167H31.8889V109H50.1111V99.9167H59.2222V92.8686C59.2222 71.8634 82 56.6757 82 43.6V32.6972C82 31.4936 80.9821 29.5208 79.7222 29.5208ZM38.5101 66.7355C38.6582 66.2587 38.3578 65.8542 37.8353 65.8542H28.9861C28.4623 65.8542 28.3142 65.559 28.6473 65.1758C28.6473 65.1758 46.8809 42.1069 47.2368 41.6613C47.5059 41.2383 47.802 41.3859 47.7081 41.8727C47.5671 42.4887 43.6735 58.227 43.6735 58.227C43.4842 58.6897 43.7575 59.0417 44.2743 59.0417H53.1277C53.6488 59.0417 53.8153 59.3908 53.4965 59.7868C53.4965 59.7868 35.2358 83.4077 34.9069 83.8037C34.5767 84.1982 34.272 84.079 34.4371 83.4063C34.6037 82.7321 38.5073 66.7355 38.5073 66.7355" fill="#DE9D43"/>
</g>
<defs>
<clipPath id="clip0_173_349">
<rect width="82" height="109" fill="white"/>
</clipPath>
</defs>
</svg>
