<?xml version="1.0" encoding="UTF-8"?>
<svg id="Layer_1" xmlns="http://www.w3.org/2000/svg" version="1.1" viewBox="0 0 3480 1080">
  <!-- Generator: Adobe Illustrator 29.2.1, SVG Export Plug-In . SVG Version: 2.1.0 Build 116)  -->
  <defs>
    <style>
      .st0 {
        fill: #e99929;
      }

      .st1 {
        fill: #203162;
      }
    </style>
  </defs>
  <polygon class="st0" points="217.7 565.4 166 565.4 166 72.1 514.8 72.1 514.8 123.8 217.7 123.8 217.7 565.4"/>
  <polygon class="st0" points="69.7 1064.8 18 1064.8 18 324.8 192.1 324.8 192.1 376.5 69.7 376.5 69.7 1064.8"/>
  <rect class="st0" x="166" y="687.7" width="51.7" height="113.9"/>
  <rect class="st0" x="165.8" y="949.9" width="51.7" height="115"/>
  <path class="st1" d="M790.8,216.6h-220v-51.7h165.4c-3.9-20.9-13-50.3-34.2-71.2-18.8-18.5-43.6-27.3-76-26.9-39.7.5-70.3,11.8-91.2,33.5-34.1,35.5-33,89-33,89.5l-51.7,1.8c-.1-3-2.2-75.1,46.9-126.7,30.9-32.4,74-49.2,128.3-49.9,46.4-.7,84.5,13.6,113.2,42,51.8,51.2,52.3,130.3,52.3,133.6v25.8Z"/>
  <path class="st1" d="M388.7,1064.8h-51.7V510.9l.3-1.9c4.4-29.8,37.7-56.9,108.1-87.8,27.9-12.2,55.2-22.2,72.4-28.1v-22.4c-51.6-42.8-66.5-105.1-67.2-107.9l50.4-11.6-25.2,5.8,25.2-5.9c.1.5,13.5,54.8,57.5,85.7l11,7.7v86.2l-18.1,5.7c-.4.1-40.3,12.7-81.4,30.5-65.5,28.3-79,45.7-81.3,49.5v548.4Z"/>
  <path class="st1" d="M743.1,932.4l-32.6-40.1,143.1-116.4c.5-70.3.6-223.5-4.3-258.8-.9-1.9-11.2-19.7-81.6-50.1-41.1-17.8-81-30.4-81.4-30.5l-18.1-5.7v-86.2s11-7.7,11-7.7c44-30.9,57.4-85.1,57.5-85.7l50.4,11.7c-.6,2.8-15.6,65.1-67.2,107.9v22.4c17.2,5.9,44.5,15.9,72.4,28.1,70.4,30.9,103.8,58,108.1,87.8,7,47.8,4.9,270,4.9,279.4v12.1c-.1,0-162.1,131.8-162.1,131.8ZM849.3,517.2h0Z"/>
  <polygon class="st1" points="999.5 1064.8 532.1 1064.8 532.1 735.8 714.2 735.8 714.2 787.5 583.8 787.5 583.8 1013.1 947.8 1013.1 947.8 754.3 999.5 754.3 999.5 1064.8"/>
  <g>
    <path class="st1" d="M1211.7,130.2c70,0,120.2,52.7,120.2,118s-49.8,118-120.2,118-120.2-52-120.2-118,50.1-118,120.2-118ZM1211.7,313.4c36.9,0,61.8-30,61.8-65.3s-24.9-65.3-61.8-65.3-62.1,30.3-62.1,65.3,25.2,65.3,62.1,65.3Z"/>
    <path class="st1" d="M1473.8,183.2v178.5h-58v-178.5h-60.6v-48.6h179.1v48.6h-60.6Z"/>
    <path class="st1" d="M1671.9,183.2v178.5h-58v-178.5h-60.6v-48.6h179.1v48.6h-60.6Z"/>
    <path class="st1" d="M1840.6,131.5h2.8l112.9,230.2h-60.2l-16.1-34.7h-76.3l-15.8,34.7h-60.2l112.9-230.2ZM1863.6,288.2c-7.9-18-17-40.4-21.5-54.2-3.2,7.6-15.5,39.7-21.8,54.2h43.2Z"/>
    <path class="st1" d="M1994.9,134.6l28.1,68.1c7.3,16.7,12.9,32.5,17.3,45.7,2.5-4.1,8.8-20.2,12.9-29.3l11-24.3,27.8-59.6h2.5c18,38.5,41,84.5,51.4,113.2,5-9.5,36-88.6,46-113.9h64.7l-107.2,230.2h-2.8l-42.6-90.5-10.7-23.3c-3.5,7.6-6.9,15.8-10.7,23.3l-42.6,90.5h-2.8l-106.9-230.2h64.7Z"/>
    <path class="st1" d="M2342.5,131.5h2.8l112.9,230.2h-60.2l-16.1-34.7h-76.3l-15.8,34.7h-60.2l112.9-230.2ZM2365.5,288.2c-7.9-18-17-40.4-21.4-54.2-3.2,7.6-15.5,39.7-21.8,54.2h43.2Z"/>
    <path class="st1" d="M1214.8,702.2c-73.5,0-123.3-51.7-123.3-118s50.5-118,121.1-118,57.7,7.9,72.9,15.1v52.7c-14.5-6.6-36.9-15.1-67.8-15.1s-68.1,30.3-68.1,65.3,24.3,65.9,65.3,65.9,17.3-1.3,23.7-2.8v-56.1h55.2v94c-21.4,10.7-51.1,17-78.8,17Z"/>
    <path class="st1" d="M1342,697.8v-227.1h148.9v48.6h-91.2v40.4h77.9v46h-77.9v43.5h95.9v48.6h-153.6Z"/>
    <path class="st1" d="M1730.5,701l-116.4-102.5-18.3-15.1v114.5h-56.5v-230.2h2.5l115.4,102.2c6.3,5,12.3,10.7,18.6,15.5v-114.5h56.8v230.2h-2.2Z"/>
    <path class="st1" d="M1789.2,697.8v-227.1h148.9v48.6h-91.1v40.4h77.9v46h-77.9v43.5h95.9v48.6h-153.6Z"/>
    <path class="st1" d="M2069.3,470.7c54.3,0,91.8,26.2,91.8,77.3s-16.7,54.6-41.6,65.6l45.7,84.2h-60.2l-36.6-74.7h-25.2v74.7h-56.5v-227.1h82.6ZM2043.1,519.3v57.7h29c17.4,0,30.6-8.2,30.6-29s-13.6-28.7-30.9-28.7h-28.7Z"/>
    <path class="st1" d="M2296.1,467.6h2.8l112.9,230.2h-60.2l-16.1-34.7h-76.3l-15.8,34.7h-60.2l112.9-230.2ZM2319.1,624.3c-7.9-18-17-40.4-21.5-54.2-3.2,7.6-15.5,39.7-21.8,54.2h43.2Z"/>
    <path class="st1" d="M2444,697.8v-227.1h57.7v178.5h82v48.6h-139.7Z"/>
    <path class="st1" d="M1277.9,870.2c-12.9-6.6-33.1-15.1-60.2-15.1-42.9,0-67.8,30.3-67.8,65.3s24.3,65.3,65.3,65.3,50.8-8.2,64.3-15.1v53.3c-13.9,7.3-39.7,14.5-69.4,14.5-68.1,0-118.3-51.7-118.3-118s50.1-118,120.8-118,51.4,7.9,65.3,15.1v52.7Z"/>
    <path class="st1" d="M1430.9,802.4c70,0,120.2,52.7,120.2,118s-49.8,118-120.2,118-120.2-52-120.2-118,50.1-118,120.2-118ZM1430.9,985.6c36.9,0,61.8-30,61.8-65.3s-24.9-65.3-61.8-65.3-62.1,30.3-62.1,65.3,25.2,65.3,62.1,65.3Z"/>
    <path class="st1" d="M1786,1037.1l-116.4-102.5-18.3-15.1v114.5h-56.5v-230.2h2.5l115.4,102.2c6.3,5,12.3,10.7,18.6,15.5v-114.5h56.8v230.2h-2.2Z"/>
    <path class="st1" d="M1944.4,855.4v178.5h-58v-178.5h-60.6v-48.6h179.1v48.6h-60.6Z"/>
    <path class="st1" d="M2125.4,806.8c54.2,0,91.8,26.2,91.8,77.3s-16.7,54.6-41.6,65.6l45.7,84.2h-60.2l-36.6-74.7h-25.2v74.7h-56.5v-227.1h82.6ZM2099.3,855.4v57.7h29c17.3,0,30.6-8.2,30.6-29s-13.6-28.7-30.9-28.7h-28.7Z"/>
    <path class="st1" d="M2352.2,803.7h2.8l112.9,230.2h-60.2l-16.1-34.7h-76.3l-15.8,34.7h-60.2l112.9-230.2ZM2375.2,960.4c-7.9-18-17-40.4-21.4-54.2-3.2,7.6-15.5,39.7-21.8,54.2h43.2Z"/>
    <path class="st1" d="M2662,870.2c-12.9-6.6-33.1-15.1-60.2-15.1-42.9,0-67.8,30.3-67.8,65.3s24.3,65.3,65.3,65.3,50.8-8.2,64.3-15.1v53.3c-13.9,7.3-39.7,14.5-69.4,14.5-68.1,0-118.3-51.7-118.3-118s50.1-118,120.8-118,51.4,7.9,65.3,15.1v52.7Z"/>
    <path class="st1" d="M2807.7,855.4v178.5h-58v-178.5h-60.6v-48.6h179.1v48.6h-60.6Z"/>
    <path class="st1" d="M2906.1,1033.9v-227.1h57.7v227.1h-57.7Z"/>
    <path class="st1" d="M3211.4,1037.1l-116.4-102.5-18.3-15.1v114.5h-56.5v-230.2h2.5l115.4,102.2c6.3,5,12.3,10.7,18.6,15.5v-114.5h56.8v230.2h-2.2Z"/>
    <path class="st1" d="M3380.1,1038.3c-73.5,0-123.3-51.7-123.3-118s50.5-118,121.1-118,57.7,7.9,72.9,15.1v52.7c-14.5-6.6-36.9-15.1-67.8-15.1s-68.1,30.3-68.1,65.3,24.3,65.9,65.3,65.9,17.4-1.3,23.7-2.8v-56.1h55.2v94c-21.5,10.7-51.1,17-78.9,17Z"/>
  </g>
</svg>